<?xml version="1.0" encoding="UTF-8"?> <!-- Generator: Adobe Illustrator 26.3.1, SVG Export Plug-In . SVG Version: 6.00 Build 0) --> <svg xmlns="http://www.w3.org/2000/svg" xmlns:xlink="http://www.w3.org/1999/xlink" id="Ebene_1" x="0px" y="0px" viewBox="0 0 329 100" style="enable-background:new 0 0 329 100;" xml:space="preserve"> <path d="M85.78,56.33c0,19.42-11.42,28.86-34.91,28.86s-34.91-9.44-34.91-28.86V0.17H1.27v57.59c0,27.09,17.15,41.41,49.6,41.41 s49.6-14.32,49.6-41.41V0.17H85.79L85.78,56.33L85.78,56.33L85.78,56.33z"></path> <path d="M311.64,0.17v74.76L245.25,0.17h-20.31v97.45h14.95V16.92l72.3,80.71h14.39V0.17H311.64L311.64,0.17z"></path> <path d="M170.44,27.85h-15.46v69.77h15.46V27.85z"></path> <path d="M209.53,0.17h-93.64v13.97h93.64V0.17z"></path> </svg> 